<?xml version="1.0" encoding="utf-8"?>
<!-- Generator: Adobe Illustrator 24.0.1, SVG Export Plug-In . SVG Version: 6.00 Build 0)  -->
<svg version="1.1" id="레이어_1" xmlns="http://www.w3.org/2000/svg" xmlns:xlink="http://www.w3.org/1999/xlink" x="0px"
	 y="0px" viewBox="0 0 140 33" style="enable-background:new 0 0 140 33;" xml:space="preserve">
<style type="text/css">
	.st0{fill:#1C1C1B;}
</style>
<path class="st0" d="M9.3,2.8l0,5l6.1,0l0-5l1.9,0l0,11.4l-1.9,0l0-4.7l-6.1,0l0,4.7l-1.9,0l0-11.4L9.3,2.8z"/>
<path class="st0" d="M28.6,10.4l0,3.8l-1.9,0l0-3.7l-4.3-7.7l1.9,0l3.3,5.6l3.2-5.6l2,0L28.6,10.4z"/>
<path class="st0" d="M46.1,2.8l0,1.7l-6.2,0l0,3.1l5.6,0l0,1.7l-5.6,0l0,3.2l6.4,0l0,1.7l-8.4,0l0-11.4L46.1,2.8z"/>
<path class="st0" d="M54,14.3c-1.4,0-2.5-0.6-3.4-1.7l0.9-1.5c0.8,0.8,1.7,1.3,2.4,1.3c1,0,1.6-0.6,1.6-1.8l0-6.1l-4,0l0-1.7l5.9,0
	l0,7.9C57.6,13,56.2,14.3,54,14.3z"/>
<path class="st0" d="M65.9,2.8l0,11.4l-1.9,0l0-11.4L65.9,2.8z"/>
<path class="st0" d="M74.4,2.8l6.1,8.2l0-8.2l1.9,0l0,11.4l-1.9,0l-6.1-8.2l0,8.2l-1.9,0l0-11.4L74.4,2.8z"/>
<path class="st0" d="M103.8,14.3L100,9.3l-1.9,2.1l0,2.9l-1.9,0l0-11.4l1.9,0l0,5.9l5.5-5.9l2.3,0l-4.4,4.9l4.7,6.6L103.8,14.3z"/>
<path class="st0" d="M113.4,2.9l0,11.4l-1.9,0l0-11.4L113.4,2.9z"/>
<path class="st0" d="M122.3,2.9l3.8,7.6l3.8-7.6l2.3,0l0,11.4l-1.8,0l0-8.6l-3.6,7.4l-1.3,0l-3.6-7.4l0,8.6l-1.8,0l0-11.4L122.3,2.9
	z"/>
<path class="st0" d="M14,26.8c0,2.2-1.7,3.8-4,3.8l-3.1,0l0-7.6l3.1,0C12.3,22.9,14,24.6,14,26.8z M13.1,26.8c0-1.7-1.3-3-3.1-3
	l-2.2,0l0,6l2.2,0C11.8,29.8,13.1,28.5,13.1,26.8z"/>
<path class="st0" d="M24.7,23l0,0.8l-4.3,0l0,2.6l3.8,0l0,0.8l-3.8,0l0,2.7l4.4,0l0,0.8l-5.3,0l0-7.6L24.7,23z"/>
<path class="st0" d="M32.8,23.8c-1,0-1.6,0.4-1.6,1c0,2,4.3,1,4.3,3.7c0,1.3-1.1,2.1-2.8,2.1c-1.1,0-2.2-0.5-2.9-1.2l0.4-0.8
	c0.7,0.7,1.7,1.1,2.5,1.1c1.1,0,1.8-0.4,1.8-1.2c0-2-4.3-1-4.3-3.7c0-1.2,1.1-2,2.6-2c0.9,0,1.8,0.3,2.4,0.7l-0.4,0.8
	C34.2,24,33.4,23.8,32.8,23.8z"/>
<path class="st0" d="M42,23l0,7.6l-0.9,0l0-7.6L42,23z"/>
<path class="st0" d="M53.6,26.9l0.8,0l0,2.8c-0.8,0.6-1.8,1-2.8,1c-2.2,0-4-1.7-4-3.9c0-2.1,1.8-3.8,4-3.8c1.1,0,2.1,0.4,2.8,1
	l-0.5,0.6c-0.6-0.6-1.5-0.9-2.3-0.9c-1.7,0-3.1,1.3-3.1,3c0,1.7,1.4,3.1,3.1,3.1c0.7,0,1.4-0.2,2-0.6L53.6,26.9z"/>
<path class="st0" d="M61.3,23l4.6,6.2l0-6.2l0.9,0l0,7.6l-0.9,0l-4.6-6.2l0,6.2l-0.9,0l0-7.6L61.3,23z"/>
<polygon class="st0" points="76.8,23 78.9,29.7 80.9,23 81.8,23 83.9,29.7 86,23 86.9,23 84.3,30.6 83.4,30.6 81.4,24.2 79.3,30.6 
	78.4,30.6 75.8,23 "/>
<path class="st0" d="M99.2,26.8c0,2.1-1.8,3.8-4,3.8c-2.2,0-4-1.7-4-3.9c0-2.1,1.8-3.8,4-3.8C97.5,23,99.2,24.7,99.2,26.8z
	 M92.1,26.8c0,1.7,1.4,3.1,3.1,3.1c1.7,0,3.1-1.4,3.1-3.1c0-1.7-1.4-3-3.1-3C93.5,23.8,92.1,25.1,92.1,26.8z"/>
<path class="st0" d="M109.7,30.7l-1.6-2.4c-0.2,0-0.3,0-0.5,0l-2,0l0,2.4l-0.9,0l0-7.6l2.9,0c1.9,0,3,0.9,3,2.6
	c0,1.3-0.6,2.1-1.7,2.5l1.8,2.6L109.7,30.7z M107.6,27.4c1.4,0,2.2-0.6,2.2-1.8c0-1.2-0.8-1.8-2.2-1.8l-2,0l0,3.6L107.6,27.4z"/>
<polygon class="st0" points="121.7,30.7 118.9,27 117.4,28.7 117.4,30.7 116.5,30.7 116.6,23 117.4,23 117.4,27.5 121.5,23 
	122.6,23 119.5,26.4 122.8,30.7 "/>
<path class="st0" d="M130.3,23.9c-1,0-1.6,0.4-1.6,1c0,2,4.3,1,4.3,3.7c0,1.3-1.1,2.1-2.8,2.1c-1.1,0-2.2-0.5-2.9-1.2l0.4-0.8
	c0.7,0.7,1.7,1.1,2.5,1.1c1.1,0,1.8-0.4,1.8-1.2c0-2-4.3-1-4.3-3.7c0-1.2,1.1-2,2.6-2c0.9,0,1.8,0.3,2.4,0.7l-0.4,0.8
	C131.7,24.1,130.9,23.9,130.3,23.9z"/>
</svg>
